<svg xmlns="http://www.w3.org/2000/svg" xmlns:xlink="http://www.w3.org/1999/xlink" contentStyleType="text/css" data-diagram-type="DESCRIPTION" height="936px" preserveAspectRatio="none" style="width:627px;height:936px;background:#FFFFFF;" version="1.1" viewBox="0 0 627 936" width="627px" zoomAndPan="magnify"><defs/><g><!--cluster Ionization chamber device--><g class="cluster" data-entity="Ionization chamber device" data-source-line="8" data-uid="ent0003" id="cluster_Ionization chamber device"><path d="M234.07,111.3 L443.0397,111.3 A3.75,3.75 0 0 1 445.5397,113.8 L452.5397,133.5969 L606.07,133.5969 A2.5,2.5 0 0 1 608.57,136.0969 L608.57,552.88 A2.5,2.5 0 0 1 606.07,555.38 L234.07,555.38 A2.5,2.5 0 0 1 231.57,552.88 L231.57,113.8 A2.5,2.5 0 0 1 234.07,111.3" fill="#ADD8E6" style="stroke:#000000;stroke-width:1;"/><line style="stroke:#000000;stroke-width:1;" x1="231.57" x2="452.5397" y1="133.5969" y2="133.5969"/><text fill="#000000" font-family="Verdana" font-size="14" font-weight="bold" lengthAdjust="spacing" textLength="207.9697" x="235.57" y="126.2951">Ionization chamber device</text></g><!--entity chamber--><g class="entity" data-entity="chamber" data-source-line="9" data-uid="ent0004" id="entity_chamber"><rect fill="#D3D3D3" height="36.2969" rx="2.5" ry="2.5" style="stroke:#000000;stroke-width:1;" width="154.6953" x="421.23" y="154.45"/><text fill="#000000" font-family="Verdana" font-size="14" lengthAdjust="spacing" textLength="134.6953" x="431.23" y="177.4451">Ionization chamber</text></g><!--entity hwpower--><g class="entity" data-entity="hwpower" data-source-line="10" data-uid="ent0005" id="entity_hwpower"><rect fill="#D3D3D3" height="52.5938" rx="2.5" ry="2.5" style="stroke:#000000;stroke-width:1;" width="138.3916" x="247.38" y="146.3"/><text fill="#000000" font-family="Verdana" font-size="14" lengthAdjust="spacing" textLength="118.3916" x="257.38" y="169.2951">HV power supply</text><text fill="#000000" font-family="Verdana" font-size="14" lengthAdjust="spacing" textLength="80.5137" x="257.38" y="185.592">(3x12V DC)</text></g><!--entity amplifier--><g class="entity" data-entity="amplifier" data-source-line="11" data-uid="ent0006" id="entity_amplifier"><rect fill="#D3D3D3" height="36.2969" rx="2.5" ry="2.5" style="stroke:#000000;stroke-width:1;" width="83.0684" x="435.04" y="259.89"/><text fill="#000000" font-family="Verdana" font-size="14" lengthAdjust="spacing" textLength="63.0684" x="445.04" y="282.8851">Amplifier</text></g><!--entity adc--><g class="entity" data-entity="adc" data-source-line="12" data-uid="ent0007" id="entity_adc"><rect fill="#D3D3D3" height="52.5938" rx="2.5" ry="2.5" style="stroke:#000000;stroke-width:1;" width="158.0859" x="290.53" y="357.19"/><text fill="#000000" font-family="Verdana" font-size="14" lengthAdjust="spacing" textLength="30.1328" x="300.53" y="380.1851">ADC</text><text fill="#000000" font-family="Verdana" font-size="14" lengthAdjust="spacing" textLength="138.0859" x="300.53" y="396.482">(MCP3425A0T-ECH)</text></g><!--entity cpu--><g class="entity" data-entity="cpu" data-source-line="13" data-uid="ent0008" id="entity_cpu"><rect fill="#D3D3D3" height="52.5938" rx="2.5" ry="2.5" style="stroke:#000000;stroke-width:1;" width="157.5459" x="247.8" y="486.78"/><text fill="#000000" font-family="Verdana" font-size="14" lengthAdjust="spacing" textLength="76.9248" x="257.8" y="509.7751">Acquisition</text><text fill="#000000" font-family="Verdana" font-size="14" lengthAdjust="spacing" textLength="137.5459" x="257.8" y="526.072">(STM8S003F3P6TR)</text></g><!--entity gui--><g class="entity" data-entity="gui" data-source-line="14" data-uid="ent0009" id="entity_gui"><rect fill="#D3D3D3" height="52.5938" rx="2.5" ry="2.5" style="stroke:#000000;stroke-width:1;" width="119.0391" x="473.05" y="486.78"/><text fill="#000000" font-family="Verdana" font-size="14" lengthAdjust="spacing" textLength="99.0391" x="483.05" y="509.7751">User Interface</text><text fill="#000000" font-family="Verdana" font-size="14" lengthAdjust="spacing" textLength="55.542" x="483.05" y="526.072">(3xLED)</text></g><!--entity sample--><g class="entity" data-entity="sample" data-source-line="6" data-uid="ent0002" id="entity_sample"><rect fill="#D3D3D3" height="36.2969" rx="2.5" ry="2.5" style="stroke:#000000;stroke-width:1;" width="157.5527" x="419.8" y="12"/><text fill="#000000" font-family="Verdana" font-size="14" lengthAdjust="spacing" textLength="137.5527" x="429.8" y="34.9951">Radioactive sample</text></g><!--entity uartconverter--><g class="entity" data-entity="uartconverter" data-source-line="17" data-uid="ent0010" id="entity_uartconverter"><rect fill="#D3D3D3" height="52.5938" rx="2.5" ry="2.5" style="stroke:#000000;stroke-width:1;" width="212.3564" x="205.4" y="618.38"/><text fill="#000000" font-family="Verdana" font-size="14" lengthAdjust="spacing" textLength="106.9619" x="215.4" y="641.3751">UART over USB</text><text fill="#000000" font-family="Verdana" font-size="14" lengthAdjust="spacing" textLength="192.3564" x="215.4" y="657.672">(USB UART FTDI Converter)</text></g><!--entity stm8programmer--><g class="entity" data-entity="stm8programmer" data-source-line="18" data-uid="ent0011" id="entity_stm8programmer"><rect fill="#D3D3D3" height="52.5938" rx="2.5" ry="2.5" style="stroke:#000000;stroke-width:1;" width="151.332" x="23.91" y="486.78"/><text fill="#000000" font-family="Verdana" font-size="14" lengthAdjust="spacing" textLength="131.332" x="33.91" y="509.7751">STM8 programator</text><text fill="#000000" font-family="Verdana" font-size="14" lengthAdjust="spacing" textLength="70.1094" x="33.91" y="526.072">(stlink v2)</text></g><!--entity pi--><g class="entity" data-entity="pi" data-source-line="19" data-uid="ent0012" id="entity_pi"><rect fill="#D3D3D3" height="52.5938" rx="2.5" ry="2.5" style="stroke:#000000;stroke-width:1;" width="291.1475" x="12" y="747.97"/><text fill="#000000" font-family="Verdana" font-size="14" lengthAdjust="spacing" textLength="271.1475" x="22" y="770.9651">Data processing and firmware flashing</text><text fill="#000000" font-family="Verdana" font-size="14" lengthAdjust="spacing" textLength="118.002" x="22" y="787.262">(RaspberryPi 3B)</text></g><!--entity pc--><g class="entity" data-entity="pc" data-source-line="20" data-uid="ent0013" id="entity_pc"><rect fill="#D3D3D3" height="52.5938" rx="2.5" ry="2.5" style="stroke:#000000;stroke-width:1;" width="143.7783" x="85.68" y="877.57"/><text fill="#000000" font-family="Verdana" font-size="14" lengthAdjust="spacing" textLength="59.1992" x="95.68" y="900.5651">Local PC</text><text fill="#000000" font-family="Verdana" font-size="14" lengthAdjust="spacing" textLength="123.7783" x="95.68" y="916.862">(OS independent)</text></g><!--link sample to chamber--><g class="link" data-entity-1="sample" data-entity-2="chamber" data-source-line="22" data-uid="lnk14" id="link_sample_chamber"><path d="M498.57,48.66 C498.57,75.72 498.57,121.39 498.57,148.31" fill="none" id="sample-to-chamber" style="stroke:#000000;stroke-width:1;"/><polygon fill="#000000" points="498.57,154.31,502.57,145.31,498.57,149.31,494.57,145.31,498.57,154.31" style="stroke:#000000;stroke-width:1;"/><text fill="#000000" font-family="Verdana" font-size="13" lengthAdjust="spacing" textLength="119.52" x="499.57" y="91.3669">Radioactive decay</text></g><!--link hwpower to chamber--><g class="link" data-entity-1="hwpower" data-entity-2="chamber" data-source-line="23" data-uid="lnk15" id="link_hwpower_chamber"><path d="M386.25,172.6 C397.8,172.6 403.35,172.6 414.91,172.6" fill="none" id="hwpower-to-chamber" style="stroke:#000000;stroke-width:1;"/><polygon fill="#000000" points="420.91,172.6,411.91,168.6,415.91,172.6,411.91,176.6,420.91,172.6" style="stroke:#000000;stroke-width:1;"/></g><!--link chamber to amplifier--><g class="link" data-entity-1="chamber" data-entity-2="amplifier" data-source-line="24" data-uid="lnk16" id="link_chamber_amplifier"><path d="M494.84,191.15 C490.8,210.17 485.63,234.4817 481.57,253.5417" fill="none" id="chamber-to-amplifier" style="stroke:#000000;stroke-width:1;"/><polygon fill="#000000" points="480.32,259.41,486.1073,251.4408,481.3617,254.5197,478.2828,249.7741,480.32,259.41" style="stroke:#000000;stroke-width:1;"/></g><!--link amplifier to adc--><g class="link" data-entity-1="amplifier" data-entity-2="adc" data-source-line="25" data-uid="lnk17" id="link_amplifier_adc"><path d="M458.42,296.59 C441.25,313.19 419.6053,334.1312 400.1653,352.9112" fill="none" id="amplifier-to-adc" style="stroke:#000000;stroke-width:1;"/><polygon fill="#000000" points="395.85,357.08,405.1021,353.7037,399.4461,353.606,399.5437,347.95,395.85,357.08" style="stroke:#000000;stroke-width:1;"/></g><!--link adc to cpu--><g class="link" data-entity-1="adc" data-entity-2="cpu" data-source-line="26" data-uid="lnk18" id="link_adc_cpu"><path d="M360.98,410 C353.48,432.26 344.565,458.6838 337.075,480.9238" fill="none" id="adc-to-cpu" style="stroke:#000000;stroke-width:1;"/><polygon fill="#000000" points="335.16,486.61,341.8233,479.3574,336.7558,481.8715,334.2417,476.804,335.16,486.61" style="stroke:#000000;stroke-width:1;"/><text fill="#000000" font-family="Verdana" font-size="13" lengthAdjust="spacing" textLength="21.1821" x="351.65" y="452.8469">I2C</text></g><!--link cpu to gui--><g class="link" data-entity-1="cpu" data-entity-2="gui" data-source-line="27" data-uid="lnk19" id="link_cpu_gui"><path d="M405.63,513.08 C427.87,513.08 445.68,513.08 466.61,513.08" fill="none" id="cpu-to-gui" style="stroke:#000000;stroke-width:1;"/><polygon fill="#000000" points="472.61,513.08,463.61,509.08,467.61,513.08,463.61,517.08,472.61,513.08" style="stroke:#000000;stroke-width:1;"/><text fill="#000000" font-family="Verdana" font-size="13" lengthAdjust="spacing" textLength="31.9795" x="423.7" y="506.1469">GPIO</text></g><!--link cpu to uartconverter--><g class="link" data-entity-1="cpu" data-entity-2="uartconverter" data-source-line="28" data-uid="lnk20" id="link_cpu_uartconverter"><path d="M323.61,539.69 C320.98,562.4 317.8502,589.4598 315.2202,612.1698" fill="none" id="cpu-to-uartconverter" style="stroke:#000000;stroke-width:1;"/><polygon fill="#000000" points="314.53,618.13,319.5388,609.6499,315.1052,613.1632,311.5919,608.7296,314.53,618.13" style="stroke:#000000;stroke-width:1;"/><text fill="#000000" font-family="Verdana" font-size="13" lengthAdjust="spacing" textLength="35.3818" x="320.52" y="584.4469">UART</text></g><!--link stm8programmer to cpu--><g class="link" data-entity-1="stm8programmer" data-entity-2="cpu" data-source-line="29" data-uid="lnk21" id="link_stm8programmer_cpu"><path d="M175.48,513.08 C198.68,513.08 218.24,513.08 241.64,513.08" fill="none" id="stm8programmer-to-cpu" style="stroke:#000000;stroke-width:1;"/><polygon fill="#000000" points="247.64,513.08,238.64,509.08,242.64,513.08,238.64,517.08,247.64,513.08" style="stroke:#000000;stroke-width:1;"/><text fill="#000000" font-family="Verdana" font-size="13" lengthAdjust="spacing" textLength="36.1563" x="193.52" y="506.1469">SWIM</text></g><!--reverse link stm8programmer to pi--><g class="link" data-entity-1="stm8programmer" data-entity-2="pi" data-source-line="30" data-uid="lnk23" id="link_stm8programmer_pi"><path d="M106.5505,545.2651 C117.6405,594.8151 140.78,698.21 151.88,747.84" fill="none" id="stm8programmer-backto-pi" style="stroke:#000000;stroke-width:1;"/><polygon fill="#000000" points="105.24,539.41,103.3023,549.0664,106.3321,544.2893,111.1091,547.3191,105.24,539.41" style="stroke:#000000;stroke-width:1;"/><text fill="#000000" font-family="Verdana" font-size="13" lengthAdjust="spacing" textLength="26.6855" x="135.34" y="649.2469">USB</text></g><!--link uartconverter to pi--><g class="link" data-entity-1="uartconverter" data-entity-2="pi" data-source-line="31" data-uid="lnk24" id="link_uartconverter_pi"><path d="M280.78,671.19 C254.01,693.37 220.0302,721.522 193.2002,743.752" fill="none" id="uartconverter-to-pi" style="stroke:#000000;stroke-width:1;"/><polygon fill="#000000" points="188.58,747.58,198.0623,744.918,192.4301,744.39,192.9582,738.7578,188.58,747.58" style="stroke:#000000;stroke-width:1;"/><text fill="#000000" font-family="Verdana" font-size="13" lengthAdjust="spacing" textLength="26.6855" x="244.79" y="714.0369">USB</text></g><!--link pi to pc--><g class="link" data-entity-1="pi" data-entity-2="pc" data-source-line="32" data-uid="lnk25" id="link_pi_pc"><path d="M131.94,800.96 C124.92,809.65 118.24,819.87 114.57,830.57 C108.89,847.14 114.1011,859.4824 125.3711,872.7824" fill="none" id="pi-to-pc" style="stroke:#000000;stroke-width:1;"/><polygon fill="#000000" points="129.25,877.36,126.4834,867.9077,126.0176,873.5454,120.3799,873.0796,129.25,877.36" style="stroke:#000000;stroke-width:1;"/><text fill="#000000" font-family="Verdana" font-size="13" lengthAdjust="spacing" textLength="56.2275" x="115.57" y="843.6369">Ethernet</text></g><!--link pc to pi--><g class="link" data-entity-1="pc" data-entity-2="pi" data-source-line="33" data-uid="lnk26" id="link_pc_pi"><path d="M168.38,877.16 C171.7,867.99 174.92,857.48 176.57,847.57 C179.2,831.82 177.0308,820.1365 171.8708,806.4065" fill="none" id="pc-to-pi" style="stroke:#000000;stroke-width:1;"/><polygon fill="#000000" points="169.76,800.79,169.1819,810.6219,171.519,805.4704,176.6705,807.8075,169.76,800.79" style="stroke:#000000;stroke-width:1;"/></g><!--SRC=[PLF1Zjem4BtxAwRffJqWKMYhrHugGM1t8u4M4TXUUfbrJB18RDTse7JLV- -O9B2472BpvhqtphpXWz-AKe0fK2hcTb8Pj5Y25ToZoWi1Rmpe6IFVvLPNAejreItCPBxrZnQFx1zZ5tAqn4ngv5xk1JWiJI4YGDSSWJ53FfWJCT5A_aKljGA-nV9LMCZ4NdBYVoo2-MjHjStV-T_AJlxDkSj-UW6Z3sJjAcEAuo_rQVZdo-059l7dasnxgCjTtOXkApUoCSVsrorl4fFdF5uClmw-ZVghtZH-gfqnuxTi_hkIJeRBaofTpU_IVd_uC5nyNorh5JVLZMhjg76YlB0RvEBq2RFffERdbOHE0ElHSWLwJvfrEYOslU64FQmc2SHQKOcyQds5rlCMWlSsuNPWhCvf6T1hIqxE5rBjO3-ejSwNTmsXx8Wdw368kN1EgXnGPR2HjZoW5R0fq6q99SSbEaEfsUD2md1SsnfvPJNJ70jOX34_fo1L9eoWb_8DcwRCckNgPVgWUZ_EwtH_lOsPu7YCM1lvXSXQGMjmpfjTaZ_NCiv2jkTcb1WrIWPnnCAvPyFkKY54GuN7HVBSL0YydlTzdLR4EgEysAO_atd4Q2IzoX3QuGLzEexOjMleO-Iv6CG1uG6Pqf_TAk49vWtnFm00]--></g></svg>