<svg xmlns="http://www.w3.org/2000/svg" xmlns:xlink="http://www.w3.org/1999/xlink" contentStyleType="text/css" data-diagram-type="SEQUENCE" height="839px" preserveAspectRatio="none" style="width:1558px;height:839px;background:#FFFFFF;" version="1.1" viewBox="0 0 1558 839" width="1558px" zoomAndPan="magnify"><defs/><g><rect fill="none" height="308.4609" style="stroke:#000000;stroke-width:1.5;" width="1394.7646" x="146.6377" y="432.7578"/><line style="stroke:#181818;stroke-width:0.5;stroke-dasharray:5.0,5.0;" x1="23" x2="23" y1="81.2969" y2="758.2188"/><line style="stroke:#181818;stroke-width:0.5;stroke-dasharray:5.0,5.0;" x1="179.6377" x2="179.6377" y1="81.2969" y2="758.2188"/><line style="stroke:#181818;stroke-width:0.5;stroke-dasharray:5.0,5.0;" x1="365.7393" x2="365.7393" y1="81.2969" y2="758.2188"/><line style="stroke:#181818;stroke-width:0.5;stroke-dasharray:5.0,5.0;" x1="544.0215" x2="544.0215" y1="81.2969" y2="758.2188"/><line style="stroke:#181818;stroke-width:0.5;stroke-dasharray:5.0,5.0;" x1="699.4443" x2="699.4443" y1="81.2969" y2="758.2188"/><line style="stroke:#181818;stroke-width:0.5;stroke-dasharray:5.0,5.0;" x1="814.2803" x2="814.2803" y1="81.2969" y2="758.2188"/><line style="stroke:#181818;stroke-width:0.5;stroke-dasharray:5.0,5.0;" x1="943.7881" x2="943.7881" y1="81.2969" y2="758.2188"/><line style="stroke:#181818;stroke-width:0.5;stroke-dasharray:5.0,5.0;" x1="1282.4775" x2="1282.4775" y1="81.2969" y2="758.2188"/><line style="stroke:#181818;stroke-width:0.5;stroke-dasharray:5.0,5.0;" x1="1432.9873" x2="1432.9873" y1="81.2969" y2="758.2188"/><line style="stroke:#181818;stroke-width:0.5;stroke-dasharray:5.0,5.0;" x1="1517.0264" x2="1517.0264" y1="81.2969" y2="758.2188"/><text fill="#000000" font-family="sans-serif" font-size="14" lengthAdjust="spacing" textLength="31.9102" x="5" y="77.9951">User</text><ellipse cx="23.9551" cy="13.5" fill="#E2E2F0" rx="8" ry="8" style="stroke:#181818;stroke-width:0.5;"/><path d="M23.9551,21.5 L23.9551,48.5 M10.9551,29.5 L36.9551,29.5 M23.9551,48.5 L10.9551,63.5 M23.9551,48.5 L36.9551,63.5 " fill="none" style="stroke:#181818;stroke-width:0.5;"/><text fill="#000000" font-family="sans-serif" font-size="14" lengthAdjust="spacing" textLength="31.9102" x="5" y="770.2139">User</text><ellipse cx="23.9551" cy="782.0156" fill="#E2E2F0" rx="8" ry="8" style="stroke:#181818;stroke-width:0.5;"/><path d="M23.9551,790.0156 L23.9551,817.0156 M10.9551,798.0156 L36.9551,798.0156 M23.9551,817.0156 L10.9551,832.0156 M23.9551,817.0156 L36.9551,832.0156 " fill="none" style="stroke:#181818;stroke-width:0.5;"/><rect fill="#E2E2F0" height="30.2969" rx="2.5" ry="2.5" style="stroke:#181818;stroke-width:0.5;" width="47.4209" x="156.6377" y="50"/><text fill="#000000" font-family="sans-serif" font-size="14" lengthAdjust="spacing" textLength="33.4209" x="163.6377" y="69.9951">Main</text><rect fill="#E2E2F0" height="30.2969" rx="2.5" ry="2.5" style="stroke:#181818;stroke-width:0.5;" width="47.4209" x="156.6377" y="757.2188"/><text fill="#000000" font-family="sans-serif" font-size="14" lengthAdjust="spacing" textLength="33.4209" x="163.6377" y="777.2139">Main</text><rect fill="#E2E2F0" height="30.2969" rx="2.5" ry="2.5" style="stroke:#181818;stroke-width:0.5;" width="146.1865" x="292.7393" y="50"/><text fill="#000000" font-family="sans-serif" font-size="14" lengthAdjust="spacing" textLength="132.1865" x="299.7393" y="69.9951">Application Builder</text><rect fill="#E2E2F0" height="30.2969" rx="2.5" ry="2.5" style="stroke:#181818;stroke-width:0.5;" width="146.1865" x="292.7393" y="757.2188"/><text fill="#000000" font-family="sans-serif" font-size="14" lengthAdjust="spacing" textLength="132.1865" x="299.7393" y="777.2139">Application Builder</text><rect fill="#E2E2F0" height="30.2969" rx="2.5" ry="2.5" style="stroke:#181818;stroke-width:0.5;" width="144.4229" x="472.0215" y="50"/><text fill="#000000" font-family="sans-serif" font-size="14" lengthAdjust="spacing" textLength="130.4229" x="479.0215" y="69.9951">Clock Configurator</text><rect fill="#E2E2F0" height="30.2969" rx="2.5" ry="2.5" style="stroke:#181818;stroke-width:0.5;" width="144.4229" x="472.0215" y="757.2188"/><text fill="#000000" font-family="sans-serif" font-size="14" lengthAdjust="spacing" textLength="130.4229" x="479.0215" y="777.2139">Clock Configurator</text><rect fill="#E2E2F0" height="30.2969" rx="2.5" ry="2.5" style="stroke:#181818;stroke-width:0.5;" width="146.8359" x="626.4443" y="50"/><text fill="#000000" font-family="sans-serif" font-size="14" lengthAdjust="spacing" textLength="132.8359" x="633.4443" y="69.9951">Timer Configurator</text><rect fill="#E2E2F0" height="30.2969" rx="2.5" ry="2.5" style="stroke:#181818;stroke-width:0.5;" width="146.8359" x="626.4443" y="757.2188"/><text fill="#000000" font-family="sans-serif" font-size="14" lengthAdjust="spacing" textLength="132.8359" x="633.4443" y="777.2139">Timer Configurator</text><rect fill="#E2E2F0" height="30.2969" rx="2.5" ry="2.5" style="stroke:#181818;stroke-width:0.5;" width="62.5078" x="783.2803" y="50"/><text fill="#000000" font-family="sans-serif" font-size="14" lengthAdjust="spacing" textLength="48.5078" x="790.2803" y="69.9951">Logger</text><rect fill="#E2E2F0" height="30.2969" rx="2.5" ry="2.5" style="stroke:#181818;stroke-width:0.5;" width="62.5078" x="783.2803" y="757.2188"/><text fill="#000000" font-family="sans-serif" font-size="14" lengthAdjust="spacing" textLength="48.5078" x="790.2803" y="777.2139">Logger</text><rect fill="#E2E2F0" height="30.2969" rx="2.5" ry="2.5" style="stroke:#181818;stroke-width:0.5;" width="177.1123" x="855.7881" y="50"/><text fill="#000000" font-family="sans-serif" font-size="14" lengthAdjust="spacing" textLength="163.1123" x="862.7881" y="69.9951">Measurement Collector</text><rect fill="#E2E2F0" height="30.2969" rx="2.5" ry="2.5" style="stroke:#181818;stroke-width:0.5;" width="177.1123" x="855.7881" y="757.2188"/><text fill="#000000" font-family="sans-serif" font-size="14" lengthAdjust="spacing" textLength="163.1123" x="862.7881" y="777.2139">Measurement Collector</text><rect fill="#E2E2F0" height="30.2969" rx="2.5" ry="2.5" style="stroke:#181818;stroke-width:0.5;" width="159.5098" x="1203.4775" y="50"/><text fill="#000000" font-family="sans-serif" font-size="14" lengthAdjust="spacing" textLength="145.5098" x="1210.4775" y="69.9951">Measurement Frame</text><rect fill="#E2E2F0" height="30.2969" rx="2.5" ry="2.5" style="stroke:#181818;stroke-width:0.5;" width="159.5098" x="1203.4775" y="757.2188"/><text fill="#000000" font-family="sans-serif" font-size="14" lengthAdjust="spacing" textLength="145.5098" x="1210.4775" y="777.2139">Measurement Frame</text><rect fill="#E2E2F0" height="30.2969" rx="2.5" ry="2.5" style="stroke:#181818;stroke-width:0.5;" width="120.0391" x="1372.9873" y="50"/><text fill="#000000" font-family="sans-serif" font-size="14" lengthAdjust="spacing" textLength="106.0391" x="1379.9873" y="69.9951">Voltage Sensor</text><rect fill="#E2E2F0" height="30.2969" rx="2.5" ry="2.5" style="stroke:#181818;stroke-width:0.5;" width="120.0391" x="1372.9873" y="757.2188"/><text fill="#000000" font-family="sans-serif" font-size="14" lengthAdjust="spacing" textLength="106.0391" x="1379.9873" y="777.2139">Voltage Sensor</text><rect fill="#E2E2F0" height="30.2969" rx="2.5" ry="2.5" style="stroke:#181818;stroke-width:0.5;" width="28.376" x="1503.0264" y="50"/><text fill="#000000" font-family="sans-serif" font-size="14" lengthAdjust="spacing" textLength="14.376" x="1510.0264" y="69.9951">UI</text><rect fill="#E2E2F0" height="30.2969" rx="2.5" ry="2.5" style="stroke:#181818;stroke-width:0.5;" width="28.376" x="1503.0264" y="757.2188"/><text fill="#000000" font-family="sans-serif" font-size="14" lengthAdjust="spacing" textLength="14.376" x="1510.0264" y="777.2139">UI</text><polygon fill="#181818" points="168.3481,108.4297,178.3481,112.4297,168.3481,116.4297,172.3481,112.4297" style="stroke:#181818;stroke-width:1;"/><line style="stroke:#181818;stroke-width:1;" x1="23.9551" x2="174.3481" y1="112.4297" y2="112.4297"/><text fill="#000000" font-family="sans-serif" font-size="13" lengthAdjust="spacing" textLength="132.3931" x="30.9551" y="107.3638">Power on the device</text><polygon fill="#181818" points="353.8325,137.5625,363.8325,141.5625,353.8325,145.5625,357.8325,141.5625" style="stroke:#181818;stroke-width:1;"/><line style="stroke:#181818;stroke-width:1;" x1="180.3481" x2="359.8325" y1="141.5625" y2="141.5625"/><text fill="#000000" font-family="sans-serif" font-size="13" lengthAdjust="spacing" textLength="156.0381" x="187.3481" y="136.4966">ApplicationBuilder_Init()</text><polygon fill="#181818" points="532.2329,166.6953,542.2329,170.6953,532.2329,174.6953,536.2329,170.6953" style="stroke:#181818;stroke-width:1;"/><line style="stroke:#181818;stroke-width:1;" x1="365.8325" x2="538.2329" y1="170.6953" y2="170.6953"/><text fill="#000000" font-family="sans-serif" font-size="13" lengthAdjust="spacing" textLength="154.4004" x="372.8325" y="165.6294">ClockConfigurator_Init()</text><polygon fill="#181818" points="687.8623,195.8281,697.8623,199.8281,687.8623,203.8281,691.8623,199.8281" style="stroke:#181818;stroke-width:1;"/><line style="stroke:#181818;stroke-width:1;" x1="365.8325" x2="693.8623" y1="199.8281" y2="199.8281"/><text fill="#000000" font-family="sans-serif" font-size="13" lengthAdjust="spacing" textLength="156.6411" x="372.8325" y="194.7622">TimerConfigurator_Init()</text><polygon fill="#181818" points="802.5342,224.9609,812.5342,228.9609,802.5342,232.9609,806.5342,228.9609" style="stroke:#181818;stroke-width:1;"/><line style="stroke:#181818;stroke-width:1;" x1="365.8325" x2="808.5342" y1="228.9609" y2="228.9609"/><text fill="#000000" font-family="sans-serif" font-size="13" lengthAdjust="spacing" textLength="82.4688" x="372.8325" y="223.895">Logger_Init()</text><polygon fill="#181818" points="1505.2144,254.0938,1515.2144,258.0938,1505.2144,262.0938,1509.2144,258.0938" style="stroke:#181818;stroke-width:1;"/><line style="stroke:#181818;stroke-width:1;" x1="365.8325" x2="1511.2144" y1="258.0938" y2="258.0938"/><text fill="#000000" font-family="sans-serif" font-size="13" lengthAdjust="spacing" textLength="125.2583" x="372.8325" y="253.0278">UserInterface_Init()</text><polygon fill="#181818" points="1421.0068,283.2266,1431.0068,287.2266,1421.0068,291.2266,1425.0068,287.2266" style="stroke:#181818;stroke-width:1;"/><line style="stroke:#181818;stroke-width:1;" x1="365.8325" x2="1427.0068" y1="287.2266" y2="287.2266"/><text fill="#000000" font-family="sans-serif" font-size="13" lengthAdjust="spacing" textLength="209.4219" x="372.8325" y="282.1606">VoltageSensorActualValue_Init()</text><polygon fill="#181818" points="932.3442,312.3594,942.3442,316.3594,932.3442,320.3594,936.3442,316.3594" style="stroke:#181818;stroke-width:1;"/><line style="stroke:#181818;stroke-width:1;" x1="365.8325" x2="938.3442" y1="316.3594" y2="316.3594"/><text fill="#000000" font-family="sans-serif" font-size="13" lengthAdjust="spacing" textLength="184.7549" x="372.8325" y="311.2935">MeasurementCollector_Init()</text><polygon fill="#181818" points="1505.2144,341.4922,1515.2144,345.4922,1505.2144,349.4922,1509.2144,345.4922" style="stroke:#181818;stroke-width:1;"/><line style="stroke:#181818;stroke-width:1;" x1="365.8325" x2="1511.2144" y1="345.4922" y2="345.4922"/><text fill="#000000" font-family="sans-serif" font-size="13" lengthAdjust="spacing" textLength="410.4141" x="372.8325" y="340.4263">UserInterface_ShowMessage(USER_INTERFAE_STATE_OK_MSG)</text><rect fill="#EEEEEE" height="3" style="stroke:#EEEEEE;stroke-width:1;" width="1551.4023" x="0" y="374.0586"/><line style="stroke:#000000;stroke-width:1;" x1="0" x2="1551.4023" y1="374.0586" y2="374.0586"/><line style="stroke:#000000;stroke-width:1;" x1="0" x2="1551.4023" y1="377.0586" y2="377.0586"/><rect fill="#EEEEEE" height="23.1328" style="stroke:#000000;stroke-width:2;" width="93.9233" x="728.7395" y="363.4922"/><text fill="#000000" font-family="sans-serif" font-size="13" font-weight="bold" lengthAdjust="spacing" textLength="75.3975" x="734.7395" y="379.5591">Main Loop</text><polygon fill="#181818" points="353.8325,413.7578,363.8325,417.7578,353.8325,421.7578,357.8325,417.7578" style="stroke:#181818;stroke-width:1;"/><line style="stroke:#181818;stroke-width:1;" x1="180.3481" x2="359.8325" y1="417.7578" y2="417.7578"/><text fill="#000000" font-family="sans-serif" font-size="13" lengthAdjust="spacing" textLength="160.7671" x="187.3481" y="412.6919">ApplicationBuilder_Run()</text><path d="M146.6377,432.7578 L223.2617,432.7578 L223.2617,439.8906 L213.2617,449.8906 L146.6377,449.8906 L146.6377,432.7578 " fill="#EEEEEE" style="stroke:#000000;stroke-width:1.5;"/><rect fill="none" height="308.4609" style="stroke:#000000;stroke-width:1.5;" width="1394.7646" x="146.6377" y="432.7578"/><text fill="#000000" font-family="sans-serif" font-size="13" font-weight="bold" lengthAdjust="spacing" textLength="31.624" x="161.6377" y="445.8247">loop</text><text fill="#000000" font-family="sans-serif" font-size="11" font-weight="bold" lengthAdjust="spacing" textLength="198.9185" x="238.2617" y="444.9683">[Wait for interrupt and process]</text><polygon fill="#181818" points="353.8325,467.0234,363.8325,471.0234,353.8325,475.0234,357.8325,471.0234" style="stroke:#181818;stroke-width:1;"/><line style="stroke:#181818;stroke-width:1;" x1="180.3481" x2="359.8325" y1="471.0234" y2="471.0234"/><text fill="#000000" font-family="sans-serif" font-size="13" lengthAdjust="spacing" textLength="161.4844" x="187.3481" y="465.9575">ApplicationBuilder_Tick()</text><polygon fill="#181818" points="932.3442,496.1563,942.3442,500.1563,932.3442,504.1563,936.3442,500.1563" style="stroke:#181818;stroke-width:1;"/><line style="stroke:#181818;stroke-width:1;" x1="365.8325" x2="938.3442" y1="500.1563" y2="500.1563"/><text fill="#000000" font-family="sans-serif" font-size="13" lengthAdjust="spacing" textLength="190.2012" x="372.8325" y="495.0903">MeasurementCollector_Tick()</text><polygon fill="#181818" points="1421.0068,525.2891,1431.0068,529.2891,1421.0068,533.2891,1425.0068,529.2891" style="stroke:#181818;stroke-width:1;"/><line style="stroke:#181818;stroke-width:1;" x1="944.3442" x2="1427.0068" y1="529.2891" y2="529.2891"/><text fill="#000000" font-family="sans-serif" font-size="13" lengthAdjust="spacing" textLength="299.9712" x="951.3442" y="524.2231">VoltageSensorActualValue_GetConfiguration()</text><polygon fill="#181818" points="1421.0068,554.4219,1431.0068,558.4219,1421.0068,562.4219,1425.0068,558.4219" style="stroke:#181818;stroke-width:1;"/><line style="stroke:#181818;stroke-width:1;" x1="944.3442" x2="1427.0068" y1="558.4219" y2="558.4219"/><text fill="#000000" font-family="sans-serif" font-size="13" lengthAdjust="spacing" textLength="280.8838" x="951.3442" y="553.356">VoltageSensorActualValue_MeasureValue()</text><polygon fill="#181818" points="955.3442,583.5547,945.3442,587.5547,955.3442,591.5547,951.3442,587.5547" style="stroke:#181818;stroke-width:1;"/><line style="stroke:#181818;stroke-width:1;" x1="949.3442" x2="1432.0068" y1="587.5547" y2="587.5547"/><text fill="#000000" font-family="sans-serif" font-size="13" lengthAdjust="spacing" textLength="124.7061" x="961.3442" y="582.4888">Measurement Data</text><polygon fill="#181818" points="1271.2324,612.6875,1281.2324,616.6875,1271.2324,620.6875,1275.2324,616.6875" style="stroke:#181818;stroke-width:1;"/><line style="stroke:#181818;stroke-width:1;" x1="944.3442" x2="1277.2324" y1="616.6875" y2="616.6875"/><text fill="#000000" font-family="sans-serif" font-size="13" lengthAdjust="spacing" textLength="314.8882" x="951.3442" y="611.6216">MeasurementFrame_Create(configuration, data)</text><polygon fill="#181818" points="1271.2324,641.8203,1281.2324,645.8203,1271.2324,649.8203,1275.2324,645.8203" style="stroke:#181818;stroke-width:1;"/><line style="stroke:#181818;stroke-width:1;" x1="944.3442" x2="1277.2324" y1="645.8203" y2="645.8203"/><text fill="#000000" font-family="sans-serif" font-size="13" lengthAdjust="spacing" textLength="233.6001" x="951.3442" y="640.7544">MeasurementFrame_Send(callback)</text><polygon fill="#181818" points="825.5342,670.9531,815.5342,674.9531,825.5342,678.9531,821.5342,674.9531" style="stroke:#181818;stroke-width:1;"/><line style="stroke:#181818;stroke-width:1;" x1="819.5342" x2="1282.2324" y1="674.9531" y2="674.9531"/><text fill="#000000" font-family="sans-serif" font-size="13" lengthAdjust="spacing" textLength="121.1006" x="831.5342" y="669.8872">Logger_Print(data)</text><polygon fill="#181818" points="1271.2324,700.0859,1281.2324,704.0859,1271.2324,708.0859,1275.2324,704.0859" style="stroke:#181818;stroke-width:1;"/><line style="stroke:#181818;stroke-width:1;stroke-dasharray:2.0,2.0;" x1="814.5342" x2="1277.2324" y1="704.0859" y2="704.0859"/><text fill="#000000" font-family="sans-serif" font-size="13" lengthAdjust="spacing" textLength="86.5059" x="821.5342" y="699.02">Acknowledge</text><polygon fill="#181818" points="1505.2144,729.2188,1515.2144,733.2188,1505.2144,737.2188,1509.2144,733.2188" style="stroke:#181818;stroke-width:1;"/><line style="stroke:#181818;stroke-width:1;" x1="365.8325" x2="1511.2144" y1="733.2188" y2="733.2188"/><text fill="#000000" font-family="sans-serif" font-size="13" lengthAdjust="spacing" textLength="130.7046" x="372.8325" y="728.1528">UserInterface_Tick()</text><!--SRC=[fLJ1Rjim3BtxAuYUN63zWG0Pu6Lf4RJPYjZfZWOdCwaGHJ9aUVdzqPAysAsx1gqlbiZt7gb7sIYSiR1jo2P9ZTP98MlK3gxMAFKLO0FTOfpAwbf9WKuQ3TzQgIgo7idnk1tZ5yg80ooCtibzQv4BUhWFZv65F99zZVJXCVB1xFUnR5Y-w9wmQIqTYJSBenI9NckG-PTuctjhyKYUvrTZu9DH3lS4EUacgiTGadIEmirNxnxCuD6SUCz-kMU2Ylv8GObFCUHi6mC7tiPWkTBIfTV90CQauEail8U6JSE3iRFmVXyUB6LyM4o3jYi6TETSQKTsXuAcSRrDituL_Cg4Qr4zeMhVu4rDYaMcmht0-ntcp-QqfgRXDj9jljoKgn_5SdERBSkyo8fb-VE-NETth3IVXzaz65F3V7xnj3QjvaPKn_g5qi6EcvPTUTlM3b1NK5iZk8C4-BbKjP3YmB8TvUCc3KGcQPVDwexS-G9nYvzNZ5I_YMezww8JmdTq-Dyc_CSx9lbGkR24Zb8nFD0Ng5Zl-cE2VBeg5QZKRnG7laQTI01FV5QFbcz6UguMypU30fauQ7DIL7K_bTVZdxZXSShSnry0]--></g></svg>