<svg xmlns="http://www.w3.org/2000/svg" xmlns:xlink="http://www.w3.org/1999/xlink" contentStyleType="text/css" data-diagram-type="SEQUENCE" height="555px" preserveAspectRatio="none" style="width:945px;height:555px;background:#FFFFFF;" version="1.1" viewBox="0 0 945 555" width="945px" zoomAndPan="magnify"><defs/><g><rect fill="#DDDDDD" height="543.7188" style="stroke:#181818;stroke-width:0.5;" width="717.2495" x="16" y="6"/><text fill="#000000" font-family="sans-serif" font-size="13" font-weight="bold" lengthAdjust="spacing" textLength="48.4961" x="350.3767" y="18.0669">Layers</text><rect fill="none" height="308.4609" style="stroke:#000000;stroke-width:1.5;" width="929.1499" x="10" y="189.9609"/><line style="stroke:#181818;stroke-width:0.5;stroke-dasharray:5.0,5.0;" x1="77" x2="77" y1="56.4297" y2="515.4219"/><line style="stroke:#181818;stroke-width:0.5;stroke-dasharray:5.0,5.0;" x1="221.2271" x2="221.2271" y1="56.4297" y2="515.4219"/><line style="stroke:#181818;stroke-width:0.5;stroke-dasharray:5.0,5.0;" x1="361.9341" x2="361.9341" y1="56.4297" y2="515.4219"/><line style="stroke:#181818;stroke-width:0.5;stroke-dasharray:5.0,5.0;" x1="492.1685" x2="492.1685" y1="56.4297" y2="515.4219"/><line style="stroke:#181818;stroke-width:0.5;stroke-dasharray:5.0,5.0;" x1="643.6021" x2="643.6021" y1="56.4297" y2="515.4219"/><line style="stroke:#181818;stroke-width:0.5;stroke-dasharray:5.0,5.0;" x1="769.2495" x2="769.2495" y1="56.4297" y2="515.4219"/><line style="stroke:#181818;stroke-width:0.5;stroke-dasharray:5.0,5.0;" x1="830.1284" x2="830.1284" y1="56.4297" y2="515.4219"/><line style="stroke:#181818;stroke-width:0.5;stroke-dasharray:5.0,5.0;" x1="893.5737" x2="893.5737" y1="56.4297" y2="515.4219"/><rect fill="#E2E2F0" height="30.2969" rx="2.5" ry="2.5" style="stroke:#181818;stroke-width:0.5;" width="114.1123" x="20" y="25.1328"/><text fill="#000000" font-family="sans-serif" font-size="14" lengthAdjust="spacing" textLength="100.1123" x="27" y="45.1279">State Machine</text><rect fill="#E2E2F0" height="30.2969" rx="2.5" ry="2.5" style="stroke:#181818;stroke-width:0.5;" width="114.1123" x="20" y="514.4219"/><text fill="#000000" font-family="sans-serif" font-size="14" lengthAdjust="spacing" textLength="100.1123" x="27" y="534.417">State Machine</text><rect fill="#E2E2F0" height="30.2969" rx="2.5" ry="2.5" style="stroke:#181818;stroke-width:0.5;" width="135.707" x="154.2271" y="25.1328"/><text fill="#000000" font-family="sans-serif" font-size="14" lengthAdjust="spacing" textLength="121.707" x="161.2271" y="45.1279">Application Layer</text><rect fill="#E2E2F0" height="30.2969" rx="2.5" ry="2.5" style="stroke:#181818;stroke-width:0.5;" width="135.707" x="154.2271" y="514.4219"/><text fill="#000000" font-family="sans-serif" font-size="14" lengthAdjust="spacing" textLength="121.707" x="161.2271" y="534.417">Application Layer</text><rect fill="#E2E2F0" height="30.2969" rx="2.5" ry="2.5" style="stroke:#181818;stroke-width:0.5;" width="125.2344" x="299.9341" y="25.1328"/><text fill="#000000" font-family="sans-serif" font-size="14" lengthAdjust="spacing" textLength="111.2344" x="306.9341" y="45.1279">Transport Layer</text><rect fill="#E2E2F0" height="30.2969" rx="2.5" ry="2.5" style="stroke:#181818;stroke-width:0.5;" width="125.2344" x="299.9341" y="514.4219"/><text fill="#000000" font-family="sans-serif" font-size="14" lengthAdjust="spacing" textLength="111.2344" x="306.9341" y="534.417">Transport Layer</text><rect fill="#E2E2F0" height="30.2969" rx="2.5" ry="2.5" style="stroke:#181818;stroke-width:0.5;" width="114.4336" x="435.1685" y="25.1328"/><text fill="#000000" font-family="sans-serif" font-size="14" lengthAdjust="spacing" textLength="100.4336" x="442.1685" y="45.1279">Physical Layer</text><rect fill="#E2E2F0" height="30.2969" rx="2.5" ry="2.5" style="stroke:#181818;stroke-width:0.5;" width="114.4336" x="435.1685" y="514.4219"/><text fill="#000000" font-family="sans-serif" font-size="14" lengthAdjust="spacing" textLength="100.4336" x="442.1685" y="534.417">Physical Layer</text><rect fill="#E2E2F0" height="30.2969" rx="2.5" ry="2.5" style="stroke:#181818;stroke-width:0.5;" width="169.6475" x="559.6021" y="25.1328"/><text fill="#000000" font-family="sans-serif" font-size="14" lengthAdjust="spacing" textLength="155.6475" x="566.6021" y="45.1279">Measurement Storage</text><rect fill="#E2E2F0" height="30.2969" rx="2.5" ry="2.5" style="stroke:#181818;stroke-width:0.5;" width="169.6475" x="559.6021" y="514.4219"/><text fill="#000000" font-family="sans-serif" font-size="14" lengthAdjust="spacing" textLength="155.6475" x="566.6021" y="534.417">Measurement Storage</text><rect fill="#E2E2F0" height="30.2969" rx="2.5" ry="2.5" style="stroke:#181818;stroke-width:0.5;" width="61.8789" x="739.2495" y="25.1328"/><text fill="#000000" font-family="sans-serif" font-size="14" lengthAdjust="spacing" textLength="47.8789" x="746.2495" y="45.1279">Device</text><rect fill="#E2E2F0" height="30.2969" rx="2.5" ry="2.5" style="stroke:#181818;stroke-width:0.5;" width="61.8789" x="739.2495" y="514.4219"/><text fill="#000000" font-family="sans-serif" font-size="14" lengthAdjust="spacing" textLength="47.8789" x="746.2495" y="534.417">Device</text><rect fill="#E2E2F0" height="30.2969" rx="2.5" ry="2.5" style="stroke:#181818;stroke-width:0.5;" width="38.4453" x="811.1284" y="25.1328"/><text fill="#000000" font-family="sans-serif" font-size="14" lengthAdjust="spacing" textLength="24.4453" x="818.1284" y="45.1279">File</text><rect fill="#E2E2F0" height="30.2969" rx="2.5" ry="2.5" style="stroke:#181818;stroke-width:0.5;" width="38.4453" x="811.1284" y="514.4219"/><text fill="#000000" font-family="sans-serif" font-size="14" lengthAdjust="spacing" textLength="24.4453" x="818.1284" y="534.417">File</text><rect fill="#E2E2F0" height="30.2969" rx="2.5" ry="2.5" style="stroke:#181818;stroke-width:0.5;" width="69.5762" x="859.5737" y="25.1328"/><text fill="#000000" font-family="sans-serif" font-size="14" lengthAdjust="spacing" textLength="55.5762" x="866.5737" y="45.1279">Console</text><rect fill="#E2E2F0" height="30.2969" rx="2.5" ry="2.5" style="stroke:#181818;stroke-width:0.5;" width="69.5762" x="859.5737" y="514.4219"/><text fill="#000000" font-family="sans-serif" font-size="14" lengthAdjust="spacing" textLength="55.5762" x="866.5737" y="534.417">Console</text><polygon fill="#181818" points="210.0806,83.5625,220.0806,87.5625,210.0806,91.5625,214.0806,87.5625" style="stroke:#181818;stroke-width:1;"/><line style="stroke:#181818;stroke-width:1;" x1="77.0562" x2="216.0806" y1="87.5625" y2="87.5625"/><text fill="#000000" font-family="sans-serif" font-size="13" lengthAdjust="spacing" textLength="61.9658" x="84.0562" y="82.4966">connect()</text><polygon fill="#181818" points="350.5513,112.6953,360.5513,116.6953,350.5513,120.6953,354.5513,116.6953" style="stroke:#181818;stroke-width:1;"/><line style="stroke:#181818;stroke-width:1;" x1="222.0806" x2="356.5513" y1="116.6953" y2="116.6953"/><text fill="#000000" font-family="sans-serif" font-size="13" lengthAdjust="spacing" textLength="61.9658" x="229.0806" y="111.6294">connect()</text><polygon fill="#181818" points="480.3853,141.8281,490.3853,145.8281,480.3853,149.8281,484.3853,145.8281" style="stroke:#181818;stroke-width:1;"/><line style="stroke:#181818;stroke-width:1;" x1="362.5513" x2="486.3853" y1="145.8281" y2="145.8281"/><text fill="#000000" font-family="sans-serif" font-size="13" lengthAdjust="spacing" textLength="61.9658" x="369.5513" y="140.7622">connect()</text><polygon fill="#181818" points="758.189,170.9609,768.189,174.9609,758.189,178.9609,762.189,174.9609" style="stroke:#181818;stroke-width:1;"/><line style="stroke:#181818;stroke-width:1;" x1="492.3853" x2="764.189" y1="174.9609" y2="174.9609"/><text fill="#000000" font-family="sans-serif" font-size="13" lengthAdjust="spacing" textLength="134.2974" x="499.3853" y="169.895">Establish connection</text><path d="M10,189.9609 L86.624,189.9609 L86.624,197.0938 L76.624,207.0938 L10,207.0938 L10,189.9609 " fill="#EEEEEE" style="stroke:#000000;stroke-width:1.5;"/><rect fill="none" height="308.4609" style="stroke:#000000;stroke-width:1.5;" width="929.1499" x="10" y="189.9609"/><text fill="#000000" font-family="sans-serif" font-size="13" font-weight="bold" lengthAdjust="spacing" textLength="31.624" x="25" y="203.0278">loop</text><text fill="#000000" font-family="sans-serif" font-size="11" font-weight="bold" lengthAdjust="spacing" textLength="198.1128" x="101.624" y="202.1714">[Repeat for each measurement]</text><polygon fill="#181818" points="210.0806,224.2266,220.0806,228.2266,210.0806,232.2266,214.0806,228.2266" style="stroke:#181818;stroke-width:1;"/><line style="stroke:#181818;stroke-width:1;" x1="77.0562" x2="216.0806" y1="228.2266" y2="228.2266"/><text fill="#000000" font-family="sans-serif" font-size="13" lengthAdjust="spacing" textLength="121.0244" x="84.0562" y="223.1606">getMeasurement()</text><polygon fill="#181818" points="350.5513,253.3594,360.5513,257.3594,350.5513,261.3594,354.5513,257.3594" style="stroke:#181818;stroke-width:1;"/><line style="stroke:#181818;stroke-width:1;" x1="222.0806" x2="356.5513" y1="257.3594" y2="257.3594"/><text fill="#000000" font-family="sans-serif" font-size="13" lengthAdjust="spacing" textLength="72.9409" x="229.0806" y="252.2935">getFrame()</text><polygon fill="#181818" points="480.3853,282.4922,490.3853,286.4922,480.3853,290.4922,484.3853,286.4922" style="stroke:#181818;stroke-width:1;"/><line style="stroke:#181818;stroke-width:1;" x1="362.5513" x2="486.3853" y1="286.4922" y2="286.4922"/><text fill="#000000" font-family="sans-serif" font-size="13" lengthAdjust="spacing" textLength="62.5308" x="369.5513" y="281.4263">getData()</text><polygon fill="#181818" points="503.3853,311.625,493.3853,315.625,503.3853,319.625,499.3853,315.625" style="stroke:#181818;stroke-width:1;"/><line style="stroke:#181818;stroke-width:1;" x1="497.3853" x2="769.189" y1="315.625" y2="315.625"/><text fill="#000000" font-family="sans-serif" font-size="13" lengthAdjust="spacing" textLength="29.2817" x="509.3853" y="310.5591">data</text><polygon fill="#181818" points="373.5513,340.7578,363.5513,344.7578,373.5513,348.7578,369.5513,344.7578" style="stroke:#181818;stroke-width:1;"/><line style="stroke:#181818;stroke-width:1;" x1="367.5513" x2="491.3853" y1="344.7578" y2="344.7578"/><text fill="#000000" font-family="sans-serif" font-size="13" lengthAdjust="spacing" textLength="29.2817" x="379.5513" y="339.6919">data</text><polygon fill="#181818" points="233.0806,369.8906,223.0806,373.8906,233.0806,377.8906,229.0806,373.8906" style="stroke:#181818;stroke-width:1;"/><line style="stroke:#181818;stroke-width:1;" x1="227.0806" x2="361.5513" y1="373.8906" y2="373.8906"/><text fill="#000000" font-family="sans-serif" font-size="13" lengthAdjust="spacing" textLength="38.5493" x="239.0806" y="368.8247">frame</text><polygon fill="#181818" points="88.0562,399.0234,78.0562,403.0234,88.0562,407.0234,84.0562,403.0234" style="stroke:#181818;stroke-width:1;"/><line style="stroke:#181818;stroke-width:1;" x1="82.0562" x2="221.0806" y1="403.0234" y2="403.0234"/><text fill="#000000" font-family="sans-serif" font-size="13" lengthAdjust="spacing" textLength="90.981" x="94.0562" y="397.9575">measurement</text><polygon fill="#181818" points="632.4258,428.1563,642.4258,432.1563,632.4258,436.1563,636.4258,432.1563" style="stroke:#181818;stroke-width:1;"/><line style="stroke:#181818;stroke-width:1;" x1="77.0562" x2="638.4258" y1="432.1563" y2="432.1563"/><text fill="#000000" font-family="sans-serif" font-size="13" lengthAdjust="spacing" textLength="130.1079" x="84.0562" y="427.0903">saveMeasurement()</text><polygon fill="#181818" points="818.3511,457.2891,828.3511,461.2891,818.3511,465.2891,822.3511,461.2891" style="stroke:#181818;stroke-width:1;"/><line style="stroke:#181818;stroke-width:1;" x1="644.4258" x2="824.3511" y1="461.2891" y2="461.2891"/><text fill="#000000" font-family="sans-serif" font-size="13" lengthAdjust="spacing" textLength="115.8574" x="651.4258" y="456.2231">Write data to CSV</text><polygon fill="#181818" points="882.3618,486.4219,892.3618,490.4219,882.3618,494.4219,886.3618,490.4219" style="stroke:#181818;stroke-width:1;"/><line style="stroke:#181818;stroke-width:1;" x1="77.0562" x2="888.3618" y1="490.4219" y2="490.4219"/><text fill="#000000" font-family="sans-serif" font-size="13" lengthAdjust="spacing" textLength="143.0317" x="84.0562" y="485.356">Display measurement</text><!--SRC=[bPB1JiCm44Jl-OfLJd3W1tf0GWqzKGaH1EUDksqjERPbBrNpzwmZAeZZ2CKtQ-UjPqRkt1Ng5nmenBe2EHu3QwKzMeQwPMI2FQgpjbIOFtblj4BMpiAuf8Qvw3sWZTu5_f7C5Q_d8SeQioZO4yQlG3t9fMKNy2Hko1wWSzUgocp2msFHsGQKivOKtzrNfNd2SgzJQ3PDI6P-IkJ313HqqOgIy3aoTaR7ymqHDrLbdFFmHfwGuUW2aEI2_hU15O5Fn7-gMvTRs5t0dbO45wH1naJSGfQ51r6LooaO6SKB7egfZydsOjIikyt_rPP-dt0HBvIrMrJAYfqs9CHdqB8xvG5si6q_YkzjdOrkr3SwUeF3nA7y-cy0]--></g></svg>