<svg xmlns="http://www.w3.org/2000/svg" xmlns:xlink="http://www.w3.org/1999/xlink" contentStyleType="text/css" data-diagram-type="STATE" height="670px" preserveAspectRatio="none" style="width:585px;height:670px;background:#FFFFFF;" version="1.1" viewBox="0 0 585 670" width="585px" zoomAndPan="magnify"><defs/><g><path d="M19.5,7 L559.7495,7 A12.5,12.5 0 0 1 572.2495,19.5 L572.2495,33.2969 L7,33.2969 L7,19.5 A12.5,12.5 0 0 1 19.5,7 " fill="#F1F1F1" style="stroke:#F1F1F1;stroke-width:1;"/><rect fill="none" height="657.2969" rx="12.5" ry="12.5" style="stroke:#181818;stroke-width:0.5;" width="565.2495" x="7" y="7"/><line style="stroke:#181818;stroke-width:0.5;" x1="7" x2="572.2495" y1="33.2969" y2="33.2969"/><text fill="#000000" font-family="sans-serif" font-size="14" lengthAdjust="spacing" textLength="241.3359" x="168.9568" y="24.9951">Ionization Chamber State Machine</text><g id="SM.InitIonizationChamber"><rect fill="#F1F1F1" height="50" rx="12.5" ry="12.5" style="stroke:#181818;stroke-width:0.5;" width="183.6045" x="310.2" y="117.2969"/><line style="stroke:#181818;stroke-width:0.5;" x1="310.2" x2="493.8045" y1="143.5938" y2="143.5938"/><text fill="#000000" font-family="sans-serif" font-size="14" lengthAdjust="spacing" textLength="163.6045" x="320.2" y="135.292">Init Ionization Chamber</text></g><g id="SM.InitMeasurementStorage"><rect fill="#F1F1F1" height="50" rx="12.5" ry="12.5" style="stroke:#181818;stroke-width:0.5;" width="202.4785" x="186.76" y="220.2969"/><line style="stroke:#181818;stroke-width:0.5;" x1="186.76" x2="389.2385" y1="246.5938" y2="246.5938"/><text fill="#000000" font-family="sans-serif" font-size="14" lengthAdjust="spacing" textLength="182.4785" x="196.76" y="238.292">Init Measurement Storage</text></g><g id="SM.GetMeasurementFromIonizationChamber"><rect fill="#F1F1F1" height="50" rx="12.5" ry="12.5" style="stroke:#181818;stroke-width:0.5;" width="327.5078" x="124.25" y="323.2969"/><line style="stroke:#181818;stroke-width:0.5;" x1="124.25" x2="451.7578" y1="349.5938" y2="349.5938"/><text fill="#000000" font-family="sans-serif" font-size="14" lengthAdjust="spacing" textLength="307.5078" x="134.25" y="341.292">Get Measurement From Ionization Chamber</text></g><g id="SM.SaveMeasurement"><rect fill="#F1F1F1" height="50" rx="12.5" ry="12.5" style="stroke:#181818;stroke-width:0.5;" width="155.2354" x="272.38" y="426.2969"/><line style="stroke:#181818;stroke-width:0.5;" x1="272.38" x2="427.6154" y1="452.5938" y2="452.5938"/><text fill="#000000" font-family="sans-serif" font-size="14" lengthAdjust="spacing" textLength="135.2354" x="282.38" y="444.292">Save Measurement</text></g><g id="SM.ShowMeasurementToUser"><rect fill="#F1F1F1" height="50" rx="12.5" ry="12.5" style="stroke:#181818;stroke-width:0.5;" width="216.5742" x="113.71" y="529.2969"/><line style="stroke:#181818;stroke-width:0.5;" x1="113.71" x2="330.2842" y1="555.5938" y2="555.5938"/><text fill="#000000" font-family="sans-serif" font-size="14" lengthAdjust="spacing" textLength="196.5742" x="123.71" y="547.292">Show Measurement To User</text></g><ellipse cx="402" cy="54.2969" fill="#222222" rx="10" ry="10" style="stroke:#222222;stroke-width:1;"/><ellipse cx="366" cy="643.2969" fill="none" rx="11" ry="11" style="stroke:#222222;stroke-width:1;"/><ellipse cx="366" cy="643.2969" fill="#222222" rx="6" ry="6" style="stroke:#222222;stroke-width:1;"/><!--link *start*SM to InitIonizationChamber--><g id="link_*start*SM_InitIonizationChamber"><path d="M402,64.4969 C402,76.8969 402,93.4069 402,110.8569 " fill="none" id="*start*SM-to-InitIonizationChamber" style="stroke:#181818;stroke-width:1;"/><polygon fill="#181818" points="402,116.8569,406,107.8569,402,111.8569,398,107.8569,402,116.8569" style="stroke:#181818;stroke-width:1;"/><text fill="#000000" font-family="sans-serif" font-size="13" lengthAdjust="spacing" textLength="31.7573" x="403" y="95.3638">Start</text></g><!--link InitIonizationChamber to InitMeasurementStorage--><g id="link_InitIonizationChamber_InitMeasurementStorage"><path d="M374.4,167.7469 C356.48,183.6269 337.7,200.2569 319.83,216.0969 " fill="none" id="InitIonizationChamber-to-InitMeasurementStorage" style="stroke:#181818;stroke-width:1;"/><polygon fill="#181818" points="315.34,220.0769,324.7283,217.1003,319.0817,216.7603,319.4217,211.1136,315.34,220.0769" style="stroke:#181818;stroke-width:1;"/><text fill="#000000" font-family="sans-serif" font-size="13" lengthAdjust="spacing" textLength="70.002" x="353" y="198.3638">Connected</text></g><!--link InitMeasurementStorage to GetMeasurementFromIonizationChamber--><g id="link_InitMeasurementStorage_GetMeasurementFromIonizationChamber"><path d="M288,270.7469 C288,286.6269 288,301.2369 288,317.0769 " fill="none" id="InitMeasurementStorage-to-GetMeasurementFromIonizationChamber" style="stroke:#181818;stroke-width:1;"/><polygon fill="#181818" points="288,323.0769,292,314.0769,288,318.0769,284,314.0769,288,323.0769" style="stroke:#181818;stroke-width:1;"/><text fill="#000000" font-family="sans-serif" font-size="13" lengthAdjust="spacing" textLength="95.9385" x="289" y="301.3638">Storage Ready</text></g><!--link GetMeasurementFromIonizationChamber to SaveMeasurement--><g id="link_GetMeasurementFromIonizationChamber_SaveMeasurement"><path d="M283.53,373.5369 C282.65,384.7269 283.38,397.8269 289,408.2969 C292.59,414.9769 293.21,416.9057 299.05,421.9257 " fill="none" id="GetMeasurementFromIonizationChamber-to-SaveMeasurement" style="stroke:#181818;stroke-width:1;"/><polygon fill="#181818" points="303.6,425.8369,299.3824,416.9368,299.8083,422.5776,294.1675,423.0035,303.6,425.8369" style="stroke:#181818;stroke-width:1;"/><text fill="#000000" font-family="sans-serif" font-size="13" lengthAdjust="spacing" textLength="151.4043" x="290" y="404.3638">Measurement Acquired</text></g><!--link SaveMeasurement to ShowMeasurementToUser--><g id="link_SaveMeasurement_ShowMeasurementToUser"><path d="M319.01,476.7469 C298.89,492.6269 277.4798,509.5197 257.4098,525.3597 " fill="none" id="SaveMeasurement-to-ShowMeasurementToUser" style="stroke:#181818;stroke-width:1;"/><polygon fill="#181818" points="252.7,529.0769,262.2429,526.641,256.6249,525.9792,257.2866,520.3612,252.7,529.0769" style="stroke:#181818;stroke-width:1;"/><text fill="#000000" font-family="sans-serif" font-size="13" lengthAdjust="spacing" textLength="40.1616" x="295" y="507.3638">Saved</text></g><!--link ShowMeasurementToUser to GetMeasurementFromIonizationChamber--><g id="link_ShowMeasurementToUser_GetMeasurementFromIonizationChamber"><path d="M164.98,528.9169 C143.38,516.5269 121.09,499.1769 109,476.2969 C98.61,456.6469 96.78,444.8569 109,426.2969 C125.09,401.8569 145.2268,387.4808 172.1368,376.0608 " fill="none" id="ShowMeasurementToUser-to-GetMeasurementFromIonizationChamber" style="stroke:#181818;stroke-width:1;"/><polygon fill="#181818" points="177.66,373.7169,167.8125,373.5506,173.0573,375.6702,170.9378,380.9149,177.66,373.7169" style="stroke:#181818;stroke-width:1;"/><text fill="#000000" font-family="sans-serif" font-size="13" lengthAdjust="spacing" textLength="152.1216" x="110" y="455.8638">Continue Measurement</text></g><!--link InitIonizationChamber to *end*SM--><g id="link_InitIonizationChamber_*end*SM"><path d="M458.49,167.7069 C487.57,184.4469 517,209.8869 517,244.2969 C517,244.2969 517,244.2969 517,555.2969 C517,620.0469 417.4417,636.6601 382.8217,640.5901 " fill="none" id="InitIonizationChamber-to-*end*SM" style="stroke:#181818;stroke-width:1;"/><polygon fill="#181818" points="376.86,641.2669,386.2537,644.2262,381.8281,640.7029,385.3514,636.2773,376.86,641.2669" style="stroke:#181818;stroke-width:1;"/><text fill="#000000" font-family="sans-serif" font-size="13" lengthAdjust="spacing" textLength="44.2495" x="518" y="404.3638">Failure</text></g><!--link InitMeasurementStorage to *end*SM--><g id="link_InitMeasurementStorage_*end*SM"><path d="M186.31,264.8569 C109.77,281.8169 18,309.9469 18,347.2969 C18,347.2969 18,347.2969 18,555.2969 C18,626.4469 289.2536,639.6885 348.8236,641.7585 " fill="none" id="InitMeasurementStorage-to-*end*SM" style="stroke:#181818;stroke-width:1;"/><polygon fill="#181818" points="354.82,641.9669,345.9643,637.6567,349.823,641.7932,345.6865,645.6519,354.82,641.9669" style="stroke:#181818;stroke-width:1;"/><text fill="#000000" font-family="sans-serif" font-size="13" lengthAdjust="spacing" textLength="44.2495" x="19" y="455.8638">Failure</text></g><!--link GetMeasurementFromIonizationChamber to *end*SM--><g id="link_GetMeasurementFromIonizationChamber_*end*SM"><path d="M411.36,373.7169 C425.63,378.7769 436.91,384.6369 442,391.2969 C503.35,471.6269 405.0369,596.8246 376.8069,629.8746 " fill="none" id="GetMeasurementFromIonizationChamber-to-*end*SM" style="stroke:#181818;stroke-width:1;"/><polygon fill="#181818" points="372.91,634.4369,381.7969,630.1914,376.1574,630.635,375.7138,624.9956,372.91,634.4369" style="stroke:#181818;stroke-width:1;"/><text fill="#000000" font-family="sans-serif" font-size="13" lengthAdjust="spacing" textLength="44.2495" x="454" y="507.3638">Failure</text></g><!--link SaveMeasurement to *end*SM--><g id="link_SaveMeasurement_*end*SM"><path d="M352.06,476.7469 C355.59,518.6369 362.147,596.498 364.617,625.858 " fill="none" id="SaveMeasurement-to-*end*SM" style="stroke:#181818;stroke-width:1;"/><polygon fill="#181818" points="365.12,631.8369,368.3514,622.5332,364.7008,626.8545,360.3796,623.2039,365.12,631.8369" style="stroke:#181818;stroke-width:1;"/><text fill="#000000" font-family="sans-serif" font-size="13" lengthAdjust="spacing" textLength="44.2495" x="362" y="558.8638">Failure</text></g><!--link ShowMeasurementToUser to *end*SM--><g id="link_ShowMeasurementToUser_*end*SM"><path d="M253.83,579.6469 C269.18,590.8569 288.11,603.9469 306,614.2969 C322.92,624.0869 338.2786,630.9163 350.4186,635.9563 " fill="none" id="ShowMeasurementToUser-to-*end*SM" style="stroke:#181818;stroke-width:1;"/><polygon fill="#181818" points="355.96,638.2569,349.1816,631.1117,351.3421,636.3397,346.1142,638.5003,355.96,638.2569" style="stroke:#181818;stroke-width:1;"/><text fill="#000000" font-family="sans-serif" font-size="13" lengthAdjust="spacing" textLength="44.2495" x="307" y="610.3638">Failure</text></g><!--SRC=[ZPExRiCm34LtVmMHiK1-m4E1842A35xgT2ewi0vH2wWbL99Jj4N-lNha8SaCOWyUp7DvhoZQMBG4YwsIuXUjK1BMFGxlfA4DbGQxNaXQ01fe6_Yhm3sl3s-mN3x2LWfxLPw5jPTgMmNKdFex4gOceItV9JeTmvidpWaQGZDg6aZQrYgD7-GYh9MKr5dQJsCaF9m4bnnChp88W_WaJvHMDbeD_6IYufbm_vD5S_eicUzmQs9plDBOStX_XXOFb6QeiqIhxciKkfYebwHKN9IYJvgbh0NVNdqdttRgnSHfERQmSsGMQgV0mz6MRPEPiyJywtDRPOKSinDNTrRK_omrR51yEi6zBPh2S-zkgkGcpL0tHvApnty0]--></g></svg>