<svg xmlns="http://www.w3.org/2000/svg" xmlns:xlink="http://www.w3.org/1999/xlink" contentStyleType="text/css" data-diagram-type="DESCRIPTION" height="199px" preserveAspectRatio="none" style="width:835px;height:199px;background:#FFFFFF;" version="1.1" viewBox="0 0 835 199" width="835px" zoomAndPan="magnify"><defs/><g><!--entity csv2--><g id="elem_csv2"><polygon fill="#F1F1F1" points="20.48,138.29,30.48,128.29,117.1021,128.29,117.1021,164.5869,107.1021,174.5869,20.48,174.5869,20.48,138.29" style="stroke:#181818;stroke-width:0.5;"/><line style="stroke:#181818;stroke-width:0.5;" x1="107.1021" x2="117.1021" y1="138.29" y2="128.29"/><line style="stroke:#181818;stroke-width:0.5;" x1="20.48" x2="107.1021" y1="138.29" y2="138.29"/><line style="stroke:#181818;stroke-width:0.5;" x1="107.1021" x2="107.1021" y1="138.29" y2="174.5869"/><text fill="#000000" font-family="sans-serif" font-size="14" lengthAdjust="spacing" textLength="56.6221" x="35.48" y="161.2851">.csv File</text></g><!--entity rscript--><g id="elem_rscript"><polygon fill="#F1F1F1" points="256.47,130.15,266.47,120.15,565.8196,120.15,565.8196,172.7438,555.8196,182.7438,256.47,182.7438,256.47,130.15" style="stroke:#181818;stroke-width:0.5;"/><line style="stroke:#181818;stroke-width:0.5;" x1="555.8196" x2="565.8196" y1="130.15" y2="120.15"/><line style="stroke:#181818;stroke-width:0.5;" x1="256.47" x2="555.8196" y1="130.15" y2="130.15"/><line style="stroke:#181818;stroke-width:0.5;" x1="555.8196" x2="555.8196" y1="130.15" y2="182.7438"/><text fill="#000000" font-family="sans-serif" font-size="14" lengthAdjust="spacing" textLength="140.4033" x="271.47" y="153.1451">One of the R Scripts</text><text fill="#000000" font-family="sans-serif" font-size="14" lengthAdjust="spacing" textLength="269.3496" x="271.47" y="169.442">(from Software/MeasurementAnalysis)</text></g><!--entity png--><g id="elem_png"><polygon fill="#F1F1F1" points="665.71,138.29,675.71,128.29,818.7832,128.29,818.7832,164.5869,808.7832,174.5869,665.71,174.5869,665.71,138.29" style="stroke:#181818;stroke-width:0.5;"/><line style="stroke:#181818;stroke-width:0.5;" x1="808.7832" x2="818.7832" y1="138.29" y2="128.29"/><line style="stroke:#181818;stroke-width:0.5;" x1="665.71" x2="808.7832" y1="138.29" y2="138.29"/><line style="stroke:#181818;stroke-width:0.5;" x1="808.7832" x2="808.7832" y1="138.29" y2="174.5869"/><text fill="#000000" font-family="sans-serif" font-size="14" lengthAdjust="spacing" textLength="113.0732" x="680.71" y="161.2851">.png Output File</text></g><!--entity com--><g id="elem_com"><polygon fill="#F1F1F1" points="16,32.29,26,22.29,121.5771,22.29,121.5771,58.5869,111.5771,68.5869,16,68.5869,16,32.29" style="stroke:#181818;stroke-width:0.5;"/><line style="stroke:#181818;stroke-width:0.5;" x1="111.5771" x2="121.5771" y1="32.29" y2="22.29"/><line style="stroke:#181818;stroke-width:0.5;" x1="16" x2="111.5771" y1="32.29" y2="32.29"/><line style="stroke:#181818;stroke-width:0.5;" x1="111.5771" x2="111.5771" y1="32.29" y2="68.5869"/><text fill="#000000" font-family="sans-serif" font-size="14" lengthAdjust="spacing" textLength="65.5771" x="31" y="55.2851">COM Port</text></g><!--entity acquisition--><g id="elem_acquisition"><polygon fill="#F1F1F1" points="249.58,16,259.58,6,572.7109,6,572.7109,74.8906,562.7109,84.8906,249.58,84.8906,249.58,16" style="stroke:#181818;stroke-width:0.5;"/><line style="stroke:#181818;stroke-width:0.5;" x1="562.7109" x2="572.7109" y1="16" y2="6"/><line style="stroke:#181818;stroke-width:0.5;" x1="249.58" x2="562.7109" y1="16" y2="16"/><line style="stroke:#181818;stroke-width:0.5;" x1="562.7109" x2="562.7109" y1="16" y2="84.8906"/><text fill="#000000" font-family="sans-serif" font-size="14" lengthAdjust="spacing" textLength="159.5986" x="264.58" y="38.9951">Acquisition Application</text><text fill="#000000" font-family="sans-serif" font-size="14" lengthAdjust="spacing" textLength="129.6641" x="264.58" y="55.292">(written in Python,</text><text fill="#000000" font-family="sans-serif" font-size="14" lengthAdjust="spacing" textLength="283.1309" x="264.58" y="71.5889">from Software/MeasurementAcquisition)</text></g><!--entity csv1--><g id="elem_csv1"><polygon fill="#F1F1F1" points="693.93,32.29,703.93,22.29,790.5521,22.29,790.5521,58.5869,780.5521,68.5869,693.93,68.5869,693.93,32.29" style="stroke:#181818;stroke-width:0.5;"/><line style="stroke:#181818;stroke-width:0.5;" x1="780.5521" x2="790.5521" y1="32.29" y2="22.29"/><line style="stroke:#181818;stroke-width:0.5;" x1="693.93" x2="780.5521" y1="32.29" y2="32.29"/><line style="stroke:#181818;stroke-width:0.5;" x1="780.5521" x2="780.5521" y1="32.29" y2="68.5869"/><text fill="#000000" font-family="sans-serif" font-size="14" lengthAdjust="spacing" textLength="56.6221" x="708.93" y="55.2851">.csv File</text></g><!--reverse link csv2 to rscript--><g id="link_csv2_rscript"><path d="M123.47,151.44 C159.79,151.44 205.93,151.44 256.18,151.44 " fill="none" id="csv2-backto-rscript" style="stroke:#181818;stroke-width:1;"/><polygon fill="#181818" points="117.47,151.44,126.47,155.44,122.47,151.44,126.47,147.44,117.47,151.44" style="stroke:#181818;stroke-width:1;"/><text fill="#000000" font-family="sans-serif" font-size="13" lengthAdjust="spacing" textLength="66.6631" x="152.58" y="147.5069">Read data</text></g><!--link rscript to png--><g id="link_rscript_png"><path d="M566.09,151.44 C600.56,151.44 629.64,151.44 659.27,151.44 " fill="none" id="rscript-to-png" style="stroke:#181818;stroke-width:1;"/><polygon fill="#181818" points="665.27,151.44,656.27,147.44,660.27,151.44,656.27,155.44,665.27,151.44" style="stroke:#181818;stroke-width:1;"/><text fill="#000000" font-family="sans-serif" font-size="13" lengthAdjust="spacing" textLength="31.9097" x="603.71" y="147.5069">Save</text></g><!--link com to acquisition--><g id="link_com_acquisition"><path d="M121.85,45.44 C156.21,45.44 197.24,45.44 243.35,45.44 " fill="none" id="com-to-acquisition" style="stroke:#181818;stroke-width:1;"/><polygon fill="#181818" points="249.35,45.44,240.35,41.44,244.35,45.44,240.35,49.44,249.35,45.44" style="stroke:#181818;stroke-width:1;"/><text fill="#000000" font-family="sans-serif" font-size="13" lengthAdjust="spacing" textLength="61.0454" x="155.08" y="41.5069">Raw data</text></g><!--link acquisition to csv1--><g id="link_acquisition_csv1"><path d="M572.84,45.44 C616.89,45.44 655.32,45.44 687.47,45.44 " fill="none" id="acquisition-to-csv1" style="stroke:#181818;stroke-width:1;"/><polygon fill="#181818" points="693.47,45.44,684.47,41.44,688.47,45.44,684.47,49.44,693.47,45.44" style="stroke:#181818;stroke-width:1;"/><text fill="#000000" font-family="sans-serif" font-size="13" lengthAdjust="spacing" textLength="31.9097" x="603.71" y="41.5069">Save</text></g><!--SRC=[TP11QyCm38Nl_XMYfmsMZUqunY0CTYifpRKNuIYD894zMsdelv_T93INtkmdwUbzwgbLK0U1pvr2mu6iiXDZn3K4krSRB_3BFUq08wJFnrAeXC2re1t14MeRs6iyoLCRt02rQtN2G6zxmZW66aYq5EolaUFppIZ4syIwnCiPgb7zgFTTIJCcBuIlebW7u1EEX0qqg6XMhIY-StUgrNYXDVbFjOU32pe7TyCYb_PlvCYP4KhlUxQOtodw55YL15ZWSDNEoSj97kFSRMOYtFW-kjrx0af-EU-sFJ7XD2DjvToMXnQkVm00]--></g></svg>