<svg xmlns="http://www.w3.org/2000/svg" xmlns:xlink="http://www.w3.org/1999/xlink" contentStyleType="text/css" data-diagram-type="DESCRIPTION" height="177px" preserveAspectRatio="none" style="width:870px;height:177px;background:#FFFFFF;" version="1.1" viewBox="0 0 870 177" width="870px" zoomAndPan="magnify"><defs/><g><!--entity comport--><g class="entity" data-entity="comport" data-source-line="3" data-uid="ent0002" id="entity_comport"><rect fill="#ADD8E6" height="46.2969" rx="2.5" ry="2.5" style="stroke:#000000;stroke-width:1;" width="105.5771" x="12" y="23.4159"/><rect fill="#ADD8E6" height="10" style="stroke:#000000;stroke-width:1;" width="15" x="97.5771" y="28.4159"/><rect fill="#ADD8E6" height="2" style="stroke:#000000;stroke-width:1;" width="4" x="95.5771" y="30.4159"/><rect fill="#ADD8E6" height="2" style="stroke:#000000;stroke-width:1;" width="4" x="95.5771" y="34.4159"/><text fill="#000000" font-family="Verdana" font-size="14" lengthAdjust="spacing" textLength="65.5771" x="27" y="56.411">COM Port</text></g><!--entity pyscript--><g class="entity" data-entity="pyscript" data-source-line="4" data-uid="ent0003" id="entity_pyscript"><rect fill="#D3D3D3" height="46.2969" rx="2.5" ry="2.5" style="stroke:#000000;stroke-width:1;" width="133.584" x="190" y="23.4159"/><rect fill="#D3D3D3" height="10" style="stroke:#000000;stroke-width:1;" width="15" x="303.584" y="28.4159"/><rect fill="#D3D3D3" height="2" style="stroke:#000000;stroke-width:1;" width="4" x="301.584" y="30.4159"/><rect fill="#D3D3D3" height="2" style="stroke:#000000;stroke-width:1;" width="4" x="301.584" y="34.4159"/><text fill="#000000" font-family="Verdana" font-size="14" lengthAdjust="spacing" textLength="93.584" x="205" y="56.411">Python Script</text></g><!--entity csvfile--><g class="entity" data-entity="csvfile" data-source-line="5" data-uid="ent0004" id="entity_csvfile"><rect fill="#90EE90" height="46.2969" rx="2.5" ry="2.5" style="stroke:#000000;stroke-width:1;" width="96.6221" x="413.48" y="23.4159"/><rect fill="#90EE90" height="10" style="stroke:#000000;stroke-width:1;" width="15" x="490.1021" y="28.4159"/><rect fill="#90EE90" height="2" style="stroke:#000000;stroke-width:1;" width="4" x="488.1021" y="30.4159"/><rect fill="#90EE90" height="2" style="stroke:#000000;stroke-width:1;" width="4" x="488.1021" y="34.4159"/><text fill="#000000" font-family="Verdana" font-size="14" lengthAdjust="spacing" textLength="56.6221" x="428.48" y="56.411">.csv File</text></g><!--entity rscript--><g class="entity" data-entity="rscript" data-source-line="6" data-uid="ent0005" id="entity_rscript"><rect fill="#D3D3D3" height="46.2969" rx="2.5" ry="2.5" style="stroke:#000000;stroke-width:1;" width="94.7832" x="599.4" y="23.4159"/><rect fill="#D3D3D3" height="10" style="stroke:#000000;stroke-width:1;" width="15" x="674.1832" y="28.4159"/><rect fill="#D3D3D3" height="2" style="stroke:#000000;stroke-width:1;" width="4" x="672.1832" y="30.4159"/><rect fill="#D3D3D3" height="2" style="stroke:#000000;stroke-width:1;" width="4" x="672.1832" y="34.4159"/><text fill="#000000" font-family="Verdana" font-size="14" lengthAdjust="spacing" textLength="54.7832" x="614.4" y="56.411">R Script</text></g><!--entity png--><g class="entity" data-entity="png" data-source-line="7" data-uid="ent0006" id="entity_png"><rect fill="#90EE90" height="46.2969" rx="2.5" ry="2.5" style="stroke:#000000;stroke-width:1;" width="135.6553" x="728.96" y="23.4159"/><rect fill="#90EE90" height="10" style="stroke:#000000;stroke-width:1;" width="15" x="844.6153" y="28.4159"/><rect fill="#90EE90" height="2" style="stroke:#000000;stroke-width:1;" width="4" x="842.6153" y="30.4159"/><rect fill="#90EE90" height="2" style="stroke:#000000;stroke-width:1;" width="4" x="842.6153" y="34.4159"/><text fill="#000000" font-family="Verdana" font-size="14" lengthAdjust="spacing" textLength="95.6553" x="743.96" y="56.411">.png Diagram</text></g><g class="entity" data-entity="GMN11" data-source-line="15" data-uid="ent0012" id="entity_GMN11"><path d="M134.71,130.7059 L134.71,170.9715 A0,0 0 0 0 134.71,170.9715 L378.8746,170.9715 A0,0 0 0 0 378.8746,170.9715 L378.8746,140.7059 L368.8746,130.7059 L260.79,130.7059 L256.79,70.0059 L252.79,130.7059 L134.71,130.7059 A0,0 0 0 0 134.71,130.7059" fill="#FFFFFF" style="stroke:#000000;stroke-width:1;"/><path d="M368.8746,130.7059 L368.8746,140.7059 L378.8746,140.7059 L368.8746,130.7059" fill="#FFFFFF" style="stroke:#000000;stroke-width:1;"/><text fill="#000000" font-family="Verdana" font-size="13" lengthAdjust="spacing" textLength="76.7559" x="140.71" y="147.7728">Script from:</text><text fill="#000000" font-family="Verdana" font-size="13" lengthAdjust="spacing" textLength="223.1646" x="140.71" y="162.9056">Software/MeasurementAcquisition</text></g><g class="entity" data-entity="GMN14" data-source-line="20" data-uid="ent0015" id="entity_GMN14"><path d="M533.64,130.7059 L533.64,170.9715 A0,0 0 0 0 533.64,170.9715 L759.9359,170.9715 A0,0 0 0 0 759.9359,170.9715 L759.9359,140.7059 L749.9359,130.7059 L650.79,130.7059 L646.79,70.0059 L642.79,130.7059 L533.64,130.7059 A0,0 0 0 0 533.64,130.7059" fill="#FFFFFF" style="stroke:#000000;stroke-width:1;"/><path d="M749.9359,130.7059 L749.9359,140.7059 L759.9359,140.7059 L749.9359,130.7059" fill="#FFFFFF" style="stroke:#000000;stroke-width:1;"/><text fill="#000000" font-family="Verdana" font-size="13" lengthAdjust="spacing" textLength="76.7559" x="539.64" y="147.7728">Script from:</text><text fill="#000000" font-family="Verdana" font-size="13" lengthAdjust="spacing" textLength="205.2959" x="539.64" y="162.9056">Software/MeasurementAnalysis</text></g><!--reverse link comport to pyscript--><g class="link" data-entity-1="comport" data-entity-2="pyscript" data-source-line="9" data-uid="lnk7" id="link_comport_pyscript"><path d="M124.02,46.5659 C146.21,46.5659 166.24,46.5659 189.72,46.5659" fill="none" id="comport-backto-pyscript" style="stroke:#000000;stroke-width:1;"/><polygon fill="#000000" points="118.02,46.5659,127.02,50.5659,123.02,46.5659,127.02,42.5659,118.02,46.5659" style="stroke:#000000;stroke-width:1;"/><text fill="#000000" font-family="Verdana" font-size="13" lengthAdjust="spacing" textLength="36.334" x="135.79" y="39.6328">reads</text></g><!--link pyscript to csvfile--><g class="link" data-entity-1="pyscript" data-entity-2="csvfile" data-source-line="10" data-uid="lnk8" id="link_pyscript_csvfile"><path d="M323.91,46.5659 C352.99,46.5659 380.39,46.5659 407.04,46.5659" fill="none" id="pyscript-to-csvfile" style="stroke:#000000;stroke-width:1;"/><polygon fill="#000000" points="413.04,46.5659,404.04,42.5659,408.04,46.5659,404.04,50.5659,413.04,46.5659" style="stroke:#000000;stroke-width:1;"/><text fill="#000000" font-family="Verdana" font-size="13" lengthAdjust="spacing" textLength="37.2036" x="350.0344" y="24.6328">saves</text><text fill="#000000" font-family="Verdana" font-size="13" lengthAdjust="spacing" textLength="53.2124" x="342.03" y="39.7656">data file</text></g><!--reverse link csvfile to rscript--><g class="link" data-entity-1="csvfile" data-entity-2="rscript" data-source-line="11" data-uid="lnk9" id="link_csvfile_rscript"><path d="M516.4,46.5659 C543.8,46.5659 571.9,46.5659 599.15,46.5659" fill="none" id="csvfile-backto-rscript" style="stroke:#000000;stroke-width:1;"/><polygon fill="#000000" points="510.4,46.5659,519.4,50.5659,515.4,46.5659,519.4,42.5659,510.4,46.5659" style="stroke:#000000;stroke-width:1;"/><text fill="#000000" font-family="Verdana" font-size="13" lengthAdjust="spacing" textLength="36.334" x="536.6892" y="24.6328">reads</text><text fill="#000000" font-family="Verdana" font-size="13" lengthAdjust="spacing" textLength="53.2124" x="528.25" y="39.7656">data file</text></g><!--link rscript to png--><g class="link" data-entity-1="rscript" data-entity-2="png" data-source-line="12" data-uid="lnk10" id="link_rscript_png"><path d="M694.54,46.5659 C705.86,46.5659 711.18,46.5659 722.49,46.5659" fill="none" id="rscript-to-png" style="stroke:#000000;stroke-width:1;"/><polygon fill="#000000" points="728.49,46.5659,719.49,42.5659,723.49,46.5659,719.49,50.5659,728.49,46.5659" style="stroke:#000000;stroke-width:1;"/></g><!--SRC=[ZP1BJuHG38Nt_HKrinxTauc9ZpWR9qwS9RgeKE0ct7knBHZ-lI0EO7JXhe-JxvpsmYhsZ4rDBW2aTqy7F4QnLoJ5BFfcg77pwChARkkM8JtsLiM0fqnSCwcQNh-QRzbUk8VqCjCE7rpD4qYxOgWN1GT8dzSG-OlHX1Bl7PL2Vd8Q-ZK2pW5tsoL5WiAKAyo3xVNidw1In_eISZB2SGJdrO2GduIrIXRM608WH6DyYsRHOoncTvXEmaAYJ-0K2_iWuQi3axOo_3dOJVRUEdNcOW0EEOwWNpZvDorGtQlJ6VK9]--></g></svg>